<svg width="36" height="36" viewBox="0 0 37 36" fill="none"
    xmlns="http://www.w3.org/2000/svg">
    <rect x="0.631226" width="36" height="36" rx="6" fill="white"></rect>
    <path d="M24.6432 16.3824H14.8972L19.1452 12.1344C19.6332 11.6464 19.6332 10.8554 19.1452 10.3664C18.6572 9.87738 17.8662 9.87838 17.3772 10.3664L10.9962 16.7474C10.8812 16.8634 10.7892 17.0014 10.7262 17.1544C10.6002 17.4604 10.6002 17.8044 10.7262 18.1094C10.7892 18.2624 10.8812 18.4014 10.9962 18.5164L17.3772 24.8974C17.6212 25.1414 17.9402 25.2634 18.2612 25.2634C18.5822 25.2634 18.9012 25.1414 19.1452 24.8974C19.6332 24.4094 19.6332 23.6184 19.1452 23.1294L14.8972 18.8824H24.6432C25.3332 18.8824 25.8932 18.3224 25.8932 17.6324C25.8932 16.9424 25.3332 16.3824 24.6432 16.3824Z" fill="#292929"></path>
</svg>